<mxfile host="65bd71144e">
    <diagram id="SiteStructure" name="Site Structure">
        <mxGraphModel dx="728" dy="1847" grid="1" gridSize="10" guides="1" tooltips="1" connect="1" arrows="1" fold="1" page="1" pageScale="1" pageWidth="1169" pageHeight="827" background="#ffffff" math="0" shadow="0">
            <root>
                <mxCell id="0"/>
                <mxCell id="1" parent="0"/>
                <mxCell id="app_root" value="FabManage Application" style="rounded=1;whiteSpace=wrap;html=1;strokeColor=#1A73E8;fillColor=#e8f0fe;fontSize=16;fontStyle=1;" parent="1" vertex="1">
                    <mxGeometry x="20" y="20" width="200" height="40" as="geometry"/>
                </mxCell>
                <mxCell id="layouts" value="Layouts" style="swimlane;horizontal=1;rounded=1;strokeColor=#1A73E8;fillColor=#f8f9fa;collapsible=0;startSize=28;childLayout=stackLayout;" parent="1" vertex="1">
                    <mxGeometry x="20" y="80" width="200" height="120" as="geometry"/>
                </mxCell>
                <mxCell id="branded_layout" value="BrandedLayout" style="rounded=1;whiteSpace=wrap;html=1;strokeColor=#1A73E8;fillColor=#fff;" parent="layouts" vertex="1">
                    <mxGeometry x="10" y="28" width="180" height="30" as="geometry"/>
                </mxCell>
                <mxCell id="bootstrap_layout" value="BootstrapLayout" style="rounded=1;whiteSpace=wrap;html=1;strokeColor=#1A73E8;fillColor=#fff;" parent="layouts" vertex="1">
                    <mxGeometry x="10" y="66" width="180" height="30" as="geometry"/>
                </mxCell>
                <mxCell id="main_pages" value="Main Pages" style="swimlane;horizontal=1;rounded=1;strokeColor=#1A73E8;fillColor=#f8f9fa;collapsible=0;startSize=28;childLayout=stackLayout;" parent="1" vertex="1">
                    <mxGeometry x="200" y="-560" width="1440" height="320" as="geometry"/>
                </mxCell>
                <mxCell id="dashboard" value="Dashboard (/) - KPI, Stats" style="rounded=1;whiteSpace=wrap;html=1;strokeColor=#1A73E8;fillColor=#fff;" parent="main_pages" vertex="1">
                    <mxGeometry y="28" width="180" height="292" as="geometry"/>
                </mxCell>
                <mxCell id="projects" value="Projects (/projects) - Lista projektów" style="rounded=1;whiteSpace=wrap;html=1;strokeColor=#1A73E8;fillColor=#fff;" parent="main_pages" vertex="1">
                    <mxGeometry x="180" y="28" width="180" height="292" as="geometry"/>
                </mxCell>
                <mxCell id="project_detail" value="Project Detail (/project/:id)" style="rounded=1;whiteSpace=wrap;html=1;strokeColor=#1A73E8;fillColor=#fff;" parent="main_pages" vertex="1">
                    <mxGeometry x="360" y="28" width="180" height="292" as="geometry"/>
                </mxCell>
                <mxCell id="add_project" value="Add Project (/projects/new)" style="rounded=1;whiteSpace=wrap;html=1;strokeColor=#1A73E8;fillColor=#fff;" parent="main_pages" vertex="1">
                    <mxGeometry x="540" y="28" width="180" height="292" as="geometry"/>
                </mxCell>
                <mxCell id="projektowanie" value="Projektowanie (/projektowanie)" style="rounded=1;whiteSpace=wrap;html=1;strokeColor=#1A73E8;fillColor=#fff;" parent="main_pages" vertex="1">
                    <mxGeometry x="720" y="28" width="180" height="292" as="geometry"/>
                </mxCell>
                <mxCell id="cnc" value="CNC (/cnc) - Maszyny CNC" style="rounded=1;whiteSpace=wrap;html=1;strokeColor=#1A73E8;fillColor=#fff;" parent="main_pages" vertex="1">
                    <mxGeometry x="900" y="28" width="180" height="292" as="geometry"/>
                </mxCell>
                <mxCell id="produkcja" value="Produkcja (/produkcja)" style="rounded=1;whiteSpace=wrap;html=1;strokeColor=#1A73E8;fillColor=#fff;" parent="main_pages" vertex="1">
                    <mxGeometry x="1080" y="28" width="180" height="292" as="geometry"/>
                </mxCell>
                <mxCell id="tiles" value="Kafelki (/kafelki)" style="rounded=1;whiteSpace=wrap;html=1;strokeColor=#1A73E8;fillColor=#fff;" parent="main_pages" vertex="1">
                    <mxGeometry x="1260" y="28" width="180" height="292" as="geometry"/>
                </mxCell>
                <mxCell id="warehouse_section" value="Warehouse Section" style="swimlane;horizontal=1;rounded=1;strokeColor=#1A73E8;fillColor=#f8f9fa;collapsible=0;startSize=28;childLayout=stackLayout;" parent="1" vertex="1">
                    <mxGeometry x="390" y="40" width="360" height="120" as="geometry"/>
                </mxCell>
                <mxCell id="magazyn_dashboard" value="Magazyn Dashboard (/magazyn)" style="rounded=1;whiteSpace=wrap;html=1;strokeColor=#1A73E8;fillColor=#fff;" parent="warehouse_section" vertex="1">
                    <mxGeometry y="28" width="180" height="92" as="geometry"/>
                </mxCell>
                <mxCell id="magazyn_lista" value="Magazyn Lista (/magazyn/lista)" style="rounded=1;whiteSpace=wrap;html=1;strokeColor=#1A73E8;fillColor=#fff;" parent="warehouse_section" vertex="1">
                    <mxGeometry x="180" y="28" width="180" height="92" as="geometry"/>
                </mxCell>
                <mxCell id="calendar_section" value="Calendar Section" style="swimlane;horizontal=1;rounded=1;strokeColor=#1A73E8;fillColor=#f8f9fa;collapsible=0;startSize=28;childLayout=stackLayout;" parent="1" vertex="1">
                    <mxGeometry x="240" y="-210" width="720" height="160" as="geometry"/>
                </mxCell>
                <mxCell id="calendar_main" value="Calendar (/calendar)" style="rounded=1;whiteSpace=wrap;html=1;strokeColor=#1A73E8;fillColor=#fff;" parent="calendar_section" vertex="1">
                    <mxGeometry y="28" width="180" height="132" as="geometry"/>
                </mxCell>
                <mxCell id="calendar_projects" value="Calendar Projects (/calendar/projects)" style="rounded=1;whiteSpace=wrap;html=1;strokeColor=#1A73E8;fillColor=#fff;" parent="calendar_section" vertex="1">
                    <mxGeometry x="180" y="28" width="180" height="132" as="geometry"/>
                </mxCell>
                <mxCell id="calendar_designers" value="Calendar Designers (/calendar/designers)" style="rounded=1;whiteSpace=wrap;html=1;strokeColor=#1A73E8;fillColor=#fff;" parent="calendar_section" vertex="1">
                    <mxGeometry x="360" y="28" width="180" height="132" as="geometry"/>
                </mxCell>
                <mxCell id="calendar_teams" value="Calendar Teams (/calendar/teams)" style="rounded=1;whiteSpace=wrap;html=1;strokeColor=#1A73E8;fillColor=#fff;" parent="calendar_section" vertex="1">
                    <mxGeometry x="540" y="28" width="180" height="132" as="geometry"/>
                </mxCell>
                <mxCell id="additional_pages" value="Additional Pages" style="swimlane;horizontal=1;rounded=1;strokeColor=#1A73E8;fillColor=#f8f9fa;collapsible=0;startSize=28;childLayout=stackLayout;" parent="1" vertex="1">
                    <mxGeometry x="1000" y="-100" width="900" height="200" as="geometry"/>
                </mxCell>
                <mxCell id="designer_dashboard" value="Designer Dashboard (/designer)" style="rounded=1;whiteSpace=wrap;html=1;strokeColor=#1A73E8;fillColor=#fff;" parent="additional_pages" vertex="1">
                    <mxGeometry y="28" width="180" height="172" as="geometry"/>
                </mxCell>
                <mxCell id="subcontractors" value="Subcontractors (/subcontractors)" style="rounded=1;whiteSpace=wrap;html=1;strokeColor=#1A73E8;fillColor=#fff;" parent="additional_pages" vertex="1">
                    <mxGeometry x="180" y="28" width="180" height="172" as="geometry"/>
                </mxCell>
                <mxCell id="demands" value="Demands (/demands)" style="rounded=1;whiteSpace=wrap;html=1;strokeColor=#1A73E8;fillColor=#fff;" parent="additional_pages" vertex="1">
                    <mxGeometry x="360" y="28" width="180" height="172" as="geometry"/>
                </mxCell>
                <mxCell id="settings" value="Settings (/settings)" style="rounded=1;whiteSpace=wrap;html=1;strokeColor=#1A73E8;fillColor=#fff;" parent="additional_pages" vertex="1">
                    <mxGeometry x="540" y="28" width="180" height="172" as="geometry"/>
                </mxCell>
                <mxCell id="klienci" value="Klienci (/klienci)" style="rounded=1;whiteSpace=wrap;html=1;strokeColor=#1A73E8;fillColor=#fff;" parent="additional_pages" vertex="1">
                    <mxGeometry x="720" y="28" width="180" height="172" as="geometry"/>
                </mxCell>
                <mxCell id="data_stores" value="Data Stores (Zustand)" style="swimlane;horizontal=1;rounded=1;strokeColor=#28a745;fillColor=#d4edda;collapsible=0;startSize=28;childLayout=stackLayout;" parent="1" vertex="1">
                    <mxGeometry x="1270" y="80" width="1260" height="280" as="geometry"/>
                </mxCell>
                <mxCell id="projects_store" value="projectsStore - Projekty" style="rounded=1;whiteSpace=wrap;html=1;strokeColor=#28a745;fillColor=#fff;" parent="data_stores" vertex="1">
                    <mxGeometry y="28" width="180" height="252" as="geometry"/>
                </mxCell>
                <mxCell id="tiles_store" value="tilesStore - Kafelki" style="rounded=1;whiteSpace=wrap;html=1;strokeColor=#28a745;fillColor=#fff;" parent="data_stores" vertex="1">
                    <mxGeometry x="180" y="28" width="180" height="252" as="geometry"/>
                </mxCell>
                <mxCell id="materials_store" value="materialsStore - Materiały" style="rounded=1;whiteSpace=wrap;html=1;strokeColor=#28a745;fillColor=#fff;" parent="data_stores" vertex="1">
                    <mxGeometry x="360" y="28" width="180" height="252" as="geometry"/>
                </mxCell>
                <mxCell id="client_data_store" value="clientDataStore - Klienci" style="rounded=1;whiteSpace=wrap;html=1;strokeColor=#28a745;fillColor=#fff;" parent="data_stores" vertex="1">
                    <mxGeometry x="540" y="28" width="180" height="252" as="geometry"/>
                </mxCell>
                <mxCell id="logistics_store" value="logisticsStore - Logistyka" style="rounded=1;whiteSpace=wrap;html=1;strokeColor=#28a745;fillColor=#fff;" parent="data_stores" vertex="1">
                    <mxGeometry x="720" y="28" width="180" height="252" as="geometry"/>
                </mxCell>
                <mxCell id="calendar_store" value="calendarStore - Kalendarz" style="rounded=1;whiteSpace=wrap;html=1;strokeColor=#28a745;fillColor=#fff;" parent="data_stores" vertex="1">
                    <mxGeometry x="900" y="28" width="180" height="252" as="geometry"/>
                </mxCell>
                <mxCell id="tasks_store" value="tasksStore - Zadania" style="rounded=1;whiteSpace=wrap;html=1;strokeColor=#28a745;fillColor=#fff;" parent="data_stores" vertex="1">
                    <mxGeometry x="1080" y="28" width="180" height="252" as="geometry"/>
                </mxCell>
                <mxCell id="ui_components" value="UI Components" style="swimlane;horizontal=1;rounded=1;strokeColor=#ffc107;fillColor=#fff3cd;collapsible=0;startSize=28;childLayout=stackLayout;" parent="1" vertex="1">
                    <mxGeometry x="260" y="470" width="900" height="200" as="geometry"/>
                </mxCell>
                <mxCell id="kanban_components" value="Kanban Components" style="rounded=1;whiteSpace=wrap;html=1;strokeColor=#ffc107;fillColor=#fff;" parent="ui_components" vertex="1">
                    <mxGeometry y="28" width="180" height="172" as="geometry"/>
                </mxCell>
                <mxCell id="project_components" value="Project Components" style="rounded=1;whiteSpace=wrap;html=1;strokeColor=#ffc107;fillColor=#fff;" parent="ui_components" vertex="1">
                    <mxGeometry x="180" y="28" width="180" height="172" as="geometry"/>
                </mxCell>
                <mxCell id="magazyn_components" value="Magazyn Components" style="rounded=1;whiteSpace=wrap;html=1;strokeColor=#ffc107;fillColor=#fff;" parent="ui_components" vertex="1">
                    <mxGeometry x="360" y="28" width="180" height="172" as="geometry"/>
                </mxCell>
                <mxCell id="calendar_components" value="Calendar Components" style="rounded=1;whiteSpace=wrap;html=1;strokeColor=#ffc107;fillColor=#fff;" parent="ui_components" vertex="1">
                    <mxGeometry x="540" y="28" width="180" height="172" as="geometry"/>
                </mxCell>
                <mxCell id="shared_components" value="Shared Components" style="rounded=1;whiteSpace=wrap;html=1;strokeColor=#ffc107;fillColor=#fff;" parent="ui_components" vertex="1">
                    <mxGeometry x="720" y="28" width="180" height="172" as="geometry"/>
                </mxCell>
                <mxCell id="backend_api" value="Backend API (Express + PostgreSQL)" style="swimlane;horizontal=1;rounded=1;strokeColor=#dc3545;fillColor=#f8d7da;collapsible=0;startSize=28;childLayout=stackLayout;" parent="1" vertex="1">
                    <mxGeometry x="120" y="270" width="540" height="160" as="geometry"/>
                </mxCell>
                <mxCell id="api_endpoints" value="API Endpoints (/api/*)" style="rounded=1;whiteSpace=wrap;html=1;strokeColor=#dc3545;fillColor=#fff;" parent="backend_api" vertex="1">
                    <mxGeometry y="28" width="180" height="132" as="geometry"/>
                </mxCell>
                <mxCell id="database" value="PostgreSQL Database" style="rounded=1;whiteSpace=wrap;html=1;strokeColor=#dc3545;fillColor=#fff;" parent="backend_api" vertex="1">
                    <mxGeometry x="180" y="28" width="180" height="132" as="geometry"/>
                </mxCell>
                <mxCell id="file_storage" value="File Storage (/files)" style="rounded=1;whiteSpace=wrap;html=1;strokeColor=#dc3545;fillColor=#fff;" parent="backend_api" vertex="1">
                    <mxGeometry x="360" y="28" width="180" height="132" as="geometry"/>
                </mxCell>
                <mxCell id="external_services" value="External Services" style="swimlane;horizontal=1;rounded=1;strokeColor=#6f42c1;fillColor=#e2d9f3;collapsible=0;startSize=28;childLayout=stackLayout;" parent="1" vertex="1">
                    <mxGeometry x="1340" y="390" width="540" height="120" as="geometry"/>
                </mxCell>
                <mxCell id="speckle" value="Speckle (3D Models)" style="rounded=1;whiteSpace=wrap;html=1;strokeColor=#6f42c1;fillColor=#fff;" parent="external_services" vertex="1">
                    <mxGeometry y="28" width="180" height="92" as="geometry"/>
                </mxCell>
                <mxCell id="three_js" value="Three.js (3D Viewer)" style="rounded=1;whiteSpace=wrap;html=1;strokeColor=#6f42c1;fillColor=#fff;" parent="external_services" vertex="1">
                    <mxGeometry x="180" y="28" width="180" height="92" as="geometry"/>
                </mxCell>
                <mxCell id="dxf_lib" value="DXF Library" style="rounded=1;whiteSpace=wrap;html=1;strokeColor=#6f42c1;fillColor=#fff;" parent="external_services" vertex="1">
                    <mxGeometry x="360" y="28" width="180" height="92" as="geometry"/>
                </mxCell>
                <mxCell id="e1" value="uses" style="endArrow=classic;startArrow=classic;html=1;strokeColor=#666;curved=1;" parent="1" source="main_pages" target="data_stores" edge="1">
                    <mxGeometry width="50" height="50" relative="1" as="geometry">
                        <mxPoint x="360" y="200" as="sourcePoint"/>
                        <mxPoint x="120" y="240" as="targetPoint"/>
                    </mxGeometry>
                </mxCell>
                <mxCell id="e2" value="uses" style="endArrow=classic;startArrow=classic;html=1;strokeColor=#666;curved=1;" parent="1" source="warehouse_section" target="data_stores" edge="1">
                    <mxGeometry x="0.0637" y="150" width="50" height="50" relative="1" as="geometry">
                        <mxPoint x="600" y="200" as="sourcePoint"/>
                        <mxPoint x="120" y="240" as="targetPoint"/>
                        <mxPoint as="offset"/>
                    </mxGeometry>
                </mxCell>
                <mxCell id="e3" value="uses" style="endArrow=classic;startArrow=classic;html=1;strokeColor=#666;curved=1;" parent="1" source="calendar_section" target="data_stores" edge="1">
                    <mxGeometry width="50" height="50" relative="1" as="geometry">
                        <mxPoint x="840" y="200" as="sourcePoint"/>
                        <mxPoint x="120" y="240" as="targetPoint"/>
                    </mxGeometry>
                </mxCell>
                <mxCell id="e4" value="connects to" style="endArrow=classic;startArrow=classic;html=1;strokeColor=#dc3545;curved=1;" parent="1" source="data_stores" target="backend_api" edge="1">
                    <mxGeometry width="50" height="50" relative="1" as="geometry">
                        <mxPoint x="220" y="380" as="sourcePoint"/>
                        <mxPoint x="500" y="380" as="targetPoint"/>
                    </mxGeometry>
                </mxCell>
                <mxCell id="e5" value="uses" style="endArrow=classic;startArrow=classic;html=1;strokeColor=#666;curved=1;" parent="1" source="ui_components" target="data_stores" edge="1">
                    <mxGeometry width="50" height="50" relative="1" as="geometry">
                        <mxPoint x="360" y="380" as="sourcePoint"/>
                        <mxPoint x="120" y="380" as="targetPoint"/>
                    </mxGeometry>
                </mxCell>
                <mxCell id="e6" value="integrates" style="endArrow=classic;startArrow=classic;html=1;strokeColor=#6f42c1;curved=1;" parent="1" source="main_pages" target="external_services" edge="1">
                    <mxGeometry width="50" height="50" relative="1" as="geometry">
                        <mxPoint x="360" y="200" as="sourcePoint"/>
                        <mxPoint x="840" y="240" as="targetPoint"/>
                    </mxGeometry>
                </mxCell>
            </root>
        </mxGraphModel>
    </diagram>
</mxfile>